<?xml version="1.0" encoding="utf-8"?>
<!-- Generator: Adobe Illustrator 18.0.0, SVG Export Plug-In . SVG Version: 6.00 Build 0)  -->
<!DOCTYPE svg PUBLIC "-//W3C//DTD SVG 1.1//EN" "http://www.w3.org/Graphics/SVG/1.1/DTD/svg11.dtd">
<svg version="1.1" id="Layer_1" xmlns="http://www.w3.org/2000/svg" xmlns:xlink="http://www.w3.org/1999/xlink" x="0px" y="0px"
	 viewBox="0 0 87.2 87.2" enable-background="new 0 0 87.2 87.2" xml:space="preserve">
<g>
	<path fill="#FFFFFF" d="M43.6,0.4C19.8,0.4,0.4,19.8,0.4,43.6c0,23.8,19.4,43.2,43.2,43.2s43.2-19.4,43.2-43.2
		C86.8,19.8,67.4,0.4,43.6,0.4z M43.6,82.4C22.2,82.4,4.8,65,4.8,43.6c0-21.4,17.4-38.8,38.8-38.8c21.4,0,38.8,17.4,38.8,38.8
		C82.4,65,65,82.4,43.6,82.4z"/>
	<path fill="#FFFFFF" d="M64.6,38.4c-0.5,0-0.9,0.2-1.3,0.5c-0.4,0.4-0.5,0.8-0.5,1.3c0,0.5,0.2,1,0.5,1.3c0.4,0.4,0.8,0.6,1.3,0.6
		c0.5,0,0.9-0.2,1.3-0.5c0.4-0.4,0.5-0.8,0.5-1.3c0-0.5-0.2-1-0.5-1.3C65.5,38.6,65.1,38.4,64.6,38.4z"/>
	<path fill="#FFFFFF" d="M27.2,43c-0.6-0.6-1.3-1.1-2.1-1.5c-0.8-0.4-1.6-0.6-2.5-0.7l6.3-7.8v-0.2H12.3v3.9h8.9l-5.7,7.1l0.4,0.7
		c0.4-0.1,0.9-0.3,1.5-0.4c0.6-0.1,1.3-0.2,2.1-0.2c1.3,0,2.5,0.4,3.5,1.1c1,0.7,1.5,1.8,1.5,3.2c0,1.5-0.4,2.6-1.2,3.3
		c-0.8,0.8-1.9,1.1-3.3,1.1c-1.4,0-2.5-0.4-3.4-1.1c-0.9-0.7-1.6-1.6-2.1-2.7l-3.9,2c0.3,0.7,0.7,1.4,1.2,2c0.5,0.7,1.2,1.3,2,1.9
		c0.8,0.6,1.7,1,2.7,1.4c1,0.4,2.2,0.5,3.4,0.5c1.6,0,2.9-0.2,4.1-0.7c1.2-0.4,2.1-1,2.9-1.8c0.8-0.8,1.3-1.6,1.7-2.7
		c0.4-1,0.6-2.1,0.6-3.3c0-1.1-0.2-2.1-0.5-2.9C28.3,44.3,27.8,43.6,27.2,43z"/>
	<path fill="#FFFFFF" d="M47.3,42.4c-0.7-0.7-1.6-1.2-2.5-1.6c-1-0.4-2-0.6-3.1-0.6c-0.6,0-1.2,0.1-1.6,0.2l6.1-7.9h-5l-6.1,8
		c-1.1,1.4-1.9,2.7-2.4,4c-0.5,1.2-0.8,2.5-0.8,3.7c0,1.3,0.2,2.5,0.7,3.5c0.5,1,1.1,1.9,1.9,2.6c0.8,0.7,1.8,1.2,2.8,1.6
		c1.1,0.4,2.2,0.6,3.4,0.6c1.2,0,2.4-0.2,3.5-0.6c1.1-0.4,2-0.9,2.8-1.6c0.8-0.7,1.5-1.6,1.9-2.6c0.5-1,0.7-2.2,0.7-3.5
		c0-1.2-0.2-2.3-0.6-3.2C48.6,44,48,43.1,47.3,42.4z M43.8,51.2C43,52,42,52.4,40.7,52.4c-1.3,0-2.4-0.4-3.1-1.2
		c-0.8-0.8-1.1-1.8-1.1-3.1c0-1.3,0.4-2.3,1.1-3.1c0.7-0.8,1.8-1.2,3.2-1.2c1.3,0,2.3,0.4,3.1,1.2c0.8,0.8,1.2,1.9,1.2,3.1
		C44.9,49.4,44.5,50.4,43.8,51.2z"/>
	<path fill="#FFFFFF" d="M73.2,35.8c-1.1-1.1-2.4-1.9-3.9-2.5c-1.5-0.6-3-0.9-4.7-0.9c-1.6,0-3.2,0.3-4.7,0.9
		c-1.5,0.6-2.8,1.4-3.9,2.5c-1.1,1.1-2,2.4-2.7,3.8c-0.7,1.5-1,3.1-1,4.8c0,1.7,0.3,3.3,1,4.8c0.7,1.5,1.6,2.8,2.7,3.8
		c1.1,1.1,2.4,1.9,3.9,2.6c1.5,0.6,3,0.9,4.7,0.9c1.6,0,3.2-0.3,4.7-0.9c1.5-0.6,2.8-1.5,3.9-2.6c1.1-1.1,2-2.4,2.7-3.8
		c0.7-1.5,1-3.1,1-4.8c0-1.7-0.3-3.3-1-4.8C75.2,38.2,74.3,36.9,73.2,35.8z M71.5,47.7c-0.4,1-0.9,1.8-1.5,2.5
		c-0.7,0.7-1.4,1.3-2.4,1.6c-0.4,0.2-0.9,0.3-1.3,0.4v-9.2h-3.5v9.2c-0.4-0.1-0.8-0.2-1.2-0.4c-0.9-0.4-1.7-0.9-2.4-1.6
		c-0.7-0.7-1.2-1.6-1.5-2.5c-0.4-1-0.6-2.1-0.6-3.3c0-1.2,0.2-2.3,0.6-3.2c0.4-1,0.9-1.8,1.5-2.5c0.7-0.7,1.4-1.3,2.4-1.6
		c0.9-0.4,1.9-0.6,3-0.6c1.1,0,2.1,0.2,3,0.6c0.9,0.4,1.7,0.9,2.4,1.6c0.7,0.7,1.2,1.6,1.5,2.5c0.4,1,0.6,2.1,0.6,3.2
		C72.1,45.6,71.9,46.7,71.5,47.7z"/>
	<path fill="#FFFFFF" d="M76.7,32.3L76.7,32.3c-0.7,0-1.3,0.6-1.3,1.3c0,0.7,0.6,1.3,1.3,1.3c0.7,0,1.3-0.6,1.3-1.3
		C78,32.9,77.5,32.3,76.7,32.3z M76.7,34.7c-0.6,0-1-0.5-1-1c0-0.6,0.4-1,1-1h0c0.6,0,1,0.5,1,1C77.7,34.2,77.3,34.7,76.7,34.7z"/>
	<path fill="#FFFFFF" d="M77,33.7L77,33.7c0.2-0.1,0.3-0.2,0.3-0.3c0-0.1-0.1-0.2-0.1-0.3C77,33,76.9,33,76.7,33c-0.2,0-0.4,0-0.5,0
		v1.3h0.3v-0.5h0.1c0.2,0,0.2,0.1,0.3,0.2c0,0.2,0.1,0.3,0.1,0.3h0.3c0,0-0.1-0.1-0.1-0.3C77.2,33.8,77.1,33.7,77,33.7z M76.6,33.6
		h-0.1v-0.4c0,0,0.1,0,0.2,0c0.2,0,0.3,0.1,0.3,0.2C76.9,33.5,76.8,33.6,76.6,33.6z"/>
</g>
</svg>
